<svg preserveAspectRatio="none" overflow="visible" style="display: block;" width="18" height="18" viewBox="0 0 18 18" fill="none" xmlns="http://www.w3.org/2000/svg">
<g id="Icon" clip-path="url(#clip0_0_293)">
<g id="Vector">
<path d="M7.60002 3.91397C8.05876 3.8053 8.52858 3.75026 9.00002 3.74997C13.032 3.74997 15.689 7.79097 16.393 8.99897C16.0053 9.67429 15.5578 10.3135 15.056 10.909C14.9926 10.9843 14.9446 11.0715 14.9149 11.1654C14.8851 11.2593 14.8742 11.3582 14.8826 11.4563C14.8997 11.6545 14.9948 11.8379 15.147 11.966C15.2224 12.0294 15.3095 12.0774 15.4034 12.1071C15.4974 12.1369 15.5962 12.1478 15.6944 12.1394C15.8926 12.1223 16.0759 12.0272 16.204 11.875C16.8594 11.0959 17.4318 10.2507 17.912 9.35297C17.9684 9.24718 17.9986 9.12943 18.0002 9.00956C18.0018 8.8897 17.9746 8.77119 17.921 8.66397C17.79 8.39997 14.649 2.24997 9.00002 2.24997C8.41159 2.24909 7.82504 2.3162 7.25202 2.44997C7.05788 2.49612 6.89002 2.61749 6.78538 2.7874C6.68073 2.95731 6.64787 3.16183 6.69402 3.35597C6.74016 3.55011 6.86154 3.71796 7.03145 3.82261C7.20136 3.92725 7.40588 3.96012 7.60002 3.91397Z" fill="#C2C2C2"/>
<path d="M17.78 16.72L1.28002 0.219969C1.13784 0.0874886 0.949795 0.0153654 0.755494 0.0187936C0.561193 0.0222218 0.375808 0.100934 0.238395 0.238347C0.100982 0.37576 0.0222701 0.561145 0.0188418 0.755446C0.0154136 0.949747 0.0875369 1.13779 0.220017 1.27997L3.44002 4.49997C2.07597 5.66259 0.939705 7.06843 0.0890168 8.64597C0.0323198 8.75163 0.00181905 8.86935 7.88893e-05 8.98925C-0.00166127 9.10915 0.02541 9.22771 0.0790168 9.33497C0.210017 9.59997 3.35202 15.75 9.01202 15.75C10.5555 15.7202 12.0594 15.2569 13.352 14.413L16.72 17.78C16.8622 17.9125 17.0502 17.9846 17.2445 17.9811C17.4388 17.9777 17.6242 17.899 17.7616 17.7616C17.8991 17.6242 17.9778 17.4388 17.9812 17.2445C17.9846 17.0502 17.9125 16.8621 17.78 16.72ZM7.55602 8.61597L9.35602 10.416C9.10854 10.4815 8.84847 10.483 8.60025 10.4204C8.35203 10.3577 8.1238 10.233 7.93702 10.058C7.74897 9.87392 7.61412 9.64251 7.54671 9.38816C7.47929 9.13382 7.48182 8.86599 7.55402 8.61297M9.00002 14.25C4.96902 14.25 2.31202 10.209 1.60702 9.00097C2.36402 7.69483 3.34302 6.53072 4.50002 5.56097L6.42402 7.48397C6.08227 8.05436 5.94089 8.72258 6.02234 9.38251C6.10379 10.0424 6.4034 10.6562 6.87358 11.1264C7.34376 11.5966 7.95755 11.8962 8.61748 11.9776C9.27741 12.0591 9.94563 11.9177 10.516 11.576L12.27 13.331C11.2766 13.9121 10.1507 14.2285 9.00002 14.25Z" fill="#C2C2C2"/>
</g>
</g>
<defs>
<clipPath id="clip0_0_293">
<rect width="18" height="18" fill="white"/>
</clipPath>
</defs>
</svg>
