<svg preserveAspectRatio="none" overflow="visible" style="display: block;" width="18" height="18" viewBox="0 0 18 18" fill="none" xmlns="http://www.w3.org/2000/svg">
<g id="Icon">
<path id="Vector" fill-rule="evenodd" clip-rule="evenodd" d="M18 9C18 13.9706 13.9706 18 9 18C4.02944 18 0 13.9706 0 9C0 4.02944 4.02944 0 9 0C13.9706 0 18 4.02944 18 9ZM12.9558 5.39844C13.1797 5.39844 13.3944 5.48727 13.5528 5.64543C13.7101 5.80373 13.7983 6.0178 13.7983 6.24093C13.7983 6.46405 13.7101 6.67813 13.5528 6.83643L8.21581 12.1884C8.13712 12.2674 8.04362 12.3301 7.94065 12.3728C7.83769 12.4156 7.7273 12.4376 7.61581 12.4376C7.50433 12.4376 7.39394 12.4156 7.29097 12.3728C7.18801 12.3301 7.0945 12.2674 7.01581 12.1884L4.44681 9.61943C4.30651 9.45819 4.23252 9.24978 4.23974 9.03617C4.24697 8.82255 4.33487 8.61961 4.48575 8.46823C4.63663 8.31684 4.83927 8.22826 5.05286 8.22031C5.26645 8.21237 5.47511 8.28566 5.63681 8.42543L7.60981 10.3934L12.3588 5.64543C12.5172 5.48727 12.732 5.39844 12.9558 5.39844Z" fill="#C2C2C2"/>
</g>
</svg>
