<svg xmlns="http://www.w3.org/2000/svg" width="600" height="600" viewBox="0 0 600 600"><title>Изолированные ячейки персональных данных</title><rect width="600" height="600" fill="#fafafb"/><g transform="translate(300 300) scale(1.00929) translate(21.651 49)"><g data-object="cells-base"><path d="M -255.48 12.50 L -21.65 147.50 L -21.65 129.50 L -255.48 -5.50 Z" fill="#f7f8fb" fill-opacity="1" stroke="#a7b1bf" stroke-width="0.85" vector-effect="non-scaling-stroke" stroke-linejoin="round"/><path d="M 212.18 12.50 L -21.65 147.50 L -21.65 129.50 L 212.18 -5.50 Z" fill="#f7f8fb" fill-opacity="1" stroke="#a7b1bf" stroke-width="0.85" vector-effect="non-scaling-stroke" stroke-linejoin="round"/><path d="M -21.65 -140.50 L 212.18 -5.50 L -21.65 129.50 L -255.48 -5.50 Z" fill="#f7f8fb" fill-opacity="1" stroke="#a7b1bf" stroke-width="0.85" vector-effect="non-scaling-stroke" stroke-linejoin="round"/></g>
<g data-object="cells-boundary"><path d="M -21.65 -245.50 L 212.18 -110.50 L 196.59 -101.50 L -21.65 -227.50 L -239.89 -101.50 L -255.48 -110.50 Z" fill="#f7f8fb" fill-opacity="1" stroke="#a7b1bf" stroke-width="0.85" vector-effect="non-scaling-stroke" stroke-linejoin="round"/><path d="M 212.18 -5.50 L 196.59 3.50 L 196.59 -101.50 L 212.18 -110.50 Z" fill="#f7f8fb" fill-opacity="1" stroke="#a7b1bf" stroke-width="0.85" vector-effect="non-scaling-stroke" stroke-linejoin="round"/><path d="M 196.59 3.50 L -21.65 -122.50 L -21.65 -227.50 L 196.59 -101.50 Z" fill="#f7f8fb" fill-opacity="1" stroke="#a7b1bf" stroke-width="0.85" vector-effect="non-scaling-stroke" stroke-linejoin="round"/><path d="M -21.65 -122.50 L -239.89 3.50 L -239.89 -101.50 L -21.65 -227.50 Z" fill="#f7f8fb" fill-opacity="1" stroke="#a7b1bf" stroke-width="0.85" vector-effect="non-scaling-stroke" stroke-linejoin="round"/><path d="M -239.89 3.50 L -255.48 -5.50 L -255.48 -110.50 L -239.89 -101.50 Z" fill="#f7f8fb" fill-opacity="1" stroke="#a7b1bf" stroke-width="0.85" vector-effect="non-scaling-stroke" stroke-linejoin="round"/></g>
<g data-object="cell-0-0"><path d="M -95.26 -58.00 L -21.65 -15.50 L -21.65 -73.50 L -95.26 -116.00 Z" fill="#f7f8fb" fill-opacity="1" stroke="#a7b1bf" stroke-width="0.85" vector-effect="non-scaling-stroke" stroke-linejoin="round"/><path d="M 47.63 -55.50 L -21.65 -15.50 L -21.65 -73.50 L 47.63 -113.50 Z" fill="#f7f8fb" fill-opacity="1" stroke="#a7b1bf" stroke-width="0.85" vector-effect="non-scaling-stroke" stroke-linejoin="round"/><path d="M -25.98 -156.00 L 47.63 -113.50 L -21.65 -73.50 L -95.26 -116.00 Z" fill="#f7f8fb" fill-opacity="1" stroke="#a7b1bf" stroke-width="0.85" vector-effect="non-scaling-stroke" stroke-linejoin="round"/></g>
<g data-object="cell-0-1"><path d="M -199.19 2.00 L -125.57 44.50 L -125.57 -13.50 L -199.19 -56.00 Z" fill="#f7f8fb" fill-opacity="1" stroke="#a7b1bf" stroke-width="0.85" vector-effect="non-scaling-stroke" stroke-linejoin="round"/><path d="M -56.29 4.50 L -125.57 44.50 L -125.57 -13.50 L -56.29 -53.50 Z" fill="#f7f8fb" fill-opacity="1" stroke="#a7b1bf" stroke-width="0.85" vector-effect="non-scaling-stroke" stroke-linejoin="round"/><path d="M -129.90 -96.00 L -56.29 -53.50 L -125.57 -13.50 L -199.19 -56.00 Z" fill="#f7f8fb" fill-opacity="1" stroke="#a7b1bf" stroke-width="0.85" vector-effect="non-scaling-stroke" stroke-linejoin="round"/></g>
<g data-object="cell-1-0"><path d="M 8.66 2.00 L 82.27 44.50 L 82.27 -13.50 L 8.66 -56.00 Z" fill="#f7f8fb" fill-opacity="1" stroke="#a7b1bf" stroke-width="0.85" vector-effect="non-scaling-stroke" stroke-linejoin="round"/><path d="M 151.55 4.50 L 82.27 44.50 L 82.27 -13.50 L 151.55 -53.50 Z" fill="#f7f8fb" fill-opacity="1" stroke="#a7b1bf" stroke-width="0.85" vector-effect="non-scaling-stroke" stroke-linejoin="round"/><path d="M 77.94 -96.00 L 151.55 -53.50 L 82.27 -13.50 L 8.66 -56.00 Z" fill="#f7f8fb" fill-opacity="1" stroke="#a7b1bf" stroke-width="0.85" vector-effect="non-scaling-stroke" stroke-linejoin="round"/></g>
<g data-object="cell-1-1"><path d="M -95.26 62.00 L -21.65 104.50 L -21.65 46.50 L -95.26 4.00 Z" fill="#f7f8fb" fill-opacity="1" stroke="#a7b1bf" stroke-width="0.85" vector-effect="non-scaling-stroke" stroke-linejoin="round"/><path d="M 47.63 64.50 L -21.65 104.50 L -21.65 46.50 L 47.63 6.50 Z" fill="#f7f8fb" fill-opacity="1" stroke="#a7b1bf" stroke-width="0.85" vector-effect="non-scaling-stroke" stroke-linejoin="round"/><path d="M -25.98 -36.00 L 47.63 6.50 L -21.65 46.50 L -95.26 4.00 Z" fill="#f7f8fb" fill-opacity="1" stroke="#a7b1bf" stroke-width="0.85" vector-effect="non-scaling-stroke" stroke-linejoin="round"/></g></g></svg>