<svg xmlns="http://www.w3.org/2000/svg" width="600" height="600" viewBox="0 0 600 600"><title>Резервируемая инфраструктура</title><g data-iso stroke-width="0.85" stroke-linejoin="round" transform="translate(300 300) scale(1.0416) translate(0.00 78.50)">
<g data-object="server-0-0"><path vector-effect="non-scaling-stroke" data-face="left" d="M -155.88 -44.00 L -69.28 6.00 L -69.28 -26.00 L -155.88 -76.00 Z" fill="#fafafb" stroke="#a3a9b2"/><path vector-effect="non-scaling-stroke" data-face="right" d="M 34.64 -54.00 L -69.28 6.00 L -69.28 -26.00 L 34.64 -86.00 Z" fill="#fafafb" stroke="#a3a9b2"/><path vector-effect="non-scaling-stroke" data-face="top" d="M -51.96 -136.00 L 34.64 -86.00 L -69.28 -26.00 L -155.88 -76.00 Z" fill="#fafafb" stroke="#a3a9b2"/></g>
<g data-object="server-0-1"><path vector-effect="non-scaling-stroke" data-face="left" d="M -155.88 -82.00 L -69.28 -32.00 L -69.28 -64.00 L -155.88 -114.00 Z" fill="#fafafb" stroke="#a3a9b2"/><path vector-effect="non-scaling-stroke" data-face="right" d="M 34.64 -92.00 L -69.28 -32.00 L -69.28 -64.00 L 34.64 -124.00 Z" fill="#fafafb" stroke="#a3a9b2"/><path vector-effect="non-scaling-stroke" data-face="top" d="M -51.96 -174.00 L 34.64 -124.00 L -69.28 -64.00 L -155.88 -114.00 Z" fill="#fafafb" stroke="#a3a9b2"/></g>
<g data-object="server-0-2"><path vector-effect="non-scaling-stroke" data-face="left" d="M -155.88 -120.00 L -69.28 -70.00 L -69.28 -102.00 L -155.88 -152.00 Z" fill="#fafafb" stroke="#a3a9b2"/><path vector-effect="non-scaling-stroke" data-face="right" d="M 34.64 -130.00 L -69.28 -70.00 L -69.28 -102.00 L 34.64 -162.00 Z" fill="#fafafb" stroke="#a3a9b2"/><path vector-effect="non-scaling-stroke" data-face="top" d="M -51.96 -212.00 L 34.64 -162.00 L -69.28 -102.00 L -155.88 -152.00 Z" fill="#fafafb" stroke="#a3a9b2"/></g>
<g data-object="server-cap-0"><path vector-effect="non-scaling-stroke" data-face="left" d="M -164.54 -158.00 L -69.28 -103.00 L -69.28 -113.00 L -164.54 -168.00 Z" fill="#fafafb" stroke="#a3a9b2"/><path vector-effect="non-scaling-stroke" data-face="right" d="M 43.30 -168.00 L -69.28 -103.00 L -69.28 -113.00 L 43.30 -178.00 Z" fill="#fafafb" stroke="#a3a9b2"/><path vector-effect="non-scaling-stroke" data-face="top" d="M -51.96 -233.00 L 43.30 -178.00 L -69.28 -113.00 L -164.54 -168.00 Z" fill="#fafafb" stroke="#a3a9b2"/></g>
<g data-object="server-1-0"><path vector-effect="non-scaling-stroke" data-face="left" d="M -34.64 26.00 L 51.96 76.00 L 51.96 44.00 L -34.64 -6.00 Z" fill="#fafafb" stroke="#a3a9b2"/><path vector-effect="non-scaling-stroke" data-face="right" d="M 155.88 16.00 L 51.96 76.00 L 51.96 44.00 L 155.88 -16.00 Z" fill="#fafafb" stroke="#a3a9b2"/><path vector-effect="non-scaling-stroke" data-face="top" d="M 69.28 -66.00 L 155.88 -16.00 L 51.96 44.00 L -34.64 -6.00 Z" fill="#fafafb" stroke="#a3a9b2"/></g>
<g data-object="server-1-1"><path vector-effect="non-scaling-stroke" data-face="left" d="M -34.64 -12.00 L 51.96 38.00 L 51.96 6.00 L -34.64 -44.00 Z" fill="#fafafb" stroke="#a3a9b2"/><path vector-effect="non-scaling-stroke" data-face="right" d="M 155.88 -22.00 L 51.96 38.00 L 51.96 6.00 L 155.88 -54.00 Z" fill="#fafafb" stroke="#a3a9b2"/><path vector-effect="non-scaling-stroke" data-face="top" d="M 69.28 -104.00 L 155.88 -54.00 L 51.96 6.00 L -34.64 -44.00 Z" fill="#fafafb" stroke="#a3a9b2"/></g>
<g data-object="server-1-2"><path vector-effect="non-scaling-stroke" data-face="left" d="M -34.64 -50.00 L 51.96 -0.00 L 51.96 -32.00 L -34.64 -82.00 Z" fill="#fafafb" stroke="#a3a9b2"/><path vector-effect="non-scaling-stroke" data-face="right" d="M 155.88 -60.00 L 51.96 -0.00 L 51.96 -32.00 L 155.88 -92.00 Z" fill="#fafafb" stroke="#a3a9b2"/><path vector-effect="non-scaling-stroke" data-face="top" d="M 69.28 -142.00 L 155.88 -92.00 L 51.96 -32.00 L -34.64 -82.00 Z" fill="#fafafb" stroke="#a3a9b2"/></g>
<g data-object="server-cap-1"><path vector-effect="non-scaling-stroke" data-face="left" d="M -43.30 -88.00 L 51.96 -33.00 L 51.96 -43.00 L -43.30 -98.00 Z" fill="#fafafb" stroke="#a3a9b2"/><path vector-effect="non-scaling-stroke" data-face="right" d="M 164.54 -98.00 L 51.96 -33.00 L 51.96 -43.00 L 164.54 -108.00 Z" fill="#fafafb" stroke="#a3a9b2"/><path vector-effect="non-scaling-stroke" data-face="top" d="M 69.28 -163.00 L 164.54 -108.00 L 51.96 -43.00 L -43.30 -98.00 Z" fill="#fafafb" stroke="#a3a9b2"/></g>
</g></svg>