<svg xmlns="http://www.w3.org/2000/svg" width="600" height="600" viewBox="0 0 600 600"><title>Роботизированная производственная ячейка</title><g data-iso stroke-width="0.85" stroke-linejoin="round" transform="translate(300 300) scale(0.9) translate(0 100)">
<g data-object="pedestal"><path vector-effect="non-scaling-stroke" data-face="left" d="M -259.81 0.00 L 0.00 150.00 L 0.00 136.00 L -259.81 -14.00 Z" fill="#f0f1f4" stroke="#a3a9b2"/><path vector-effect="non-scaling-stroke" data-face="right" d="M 259.81 0.00 L 0.00 150.00 L 0.00 136.00 L 259.81 -14.00 Z" fill="#e6e8ec" stroke="#a3a9b2"/><path vector-effect="non-scaling-stroke" data-face="top" d="M 0.00 -164.00 L 259.81 -14.00 L 0.00 136.00 L -259.81 -14.00 Z" fill="#fafafb" stroke="#a3a9b2"/></g>
<g data-object="conveyor"><path vector-effect="non-scaling-stroke" data-face="left" d="M -138.56 -64.00 L 86.60 66.00 L 86.60 50.00 L -138.56 -80.00 Z" fill="#f0f1f4" stroke="#a3a9b2"/><path vector-effect="non-scaling-stroke" data-face="right" d="M 138.56 36.00 L 86.60 66.00 L 86.60 50.00 L 138.56 20.00 Z" fill="#e6e8ec" stroke="#a3a9b2"/><path vector-effect="non-scaling-stroke" data-face="top" d="M -86.60 -110.00 L 138.56 20.00 L 86.60 50.00 L -138.56 -80.00 Z" fill="#fafafb" stroke="#a3a9b2"/></g>
<g data-object="column"><path vector-effect="non-scaling-stroke" data-face="left" d="M 17.32 -74.00 L 34.64 -64.00 L 34.64 -184.00 L 17.32 -194.00 Z" fill="#f0f1f4" stroke="#a3a9b2"/><path vector-effect="non-scaling-stroke" data-face="right" d="M 51.96 -74.00 L 34.64 -64.00 L 34.64 -184.00 L 51.96 -194.00 Z" fill="#e6e8ec" stroke="#a3a9b2"/><path vector-effect="non-scaling-stroke" data-face="top" d="M 34.64 -204.00 L 51.96 -194.00 L 34.64 -184.00 L 17.32 -194.00 Z" fill="#fafafb" stroke="#a3a9b2"/></g>
<g data-object="part-0"><path vector-effect="non-scaling-stroke" data-face="left" d="M -121.24 -80.00 L -86.60 -60.00 L -86.60 -88.00 L -121.24 -108.00 Z" fill="#f0f1f4" stroke="#a3a9b2"/><path vector-effect="non-scaling-stroke" data-face="right" d="M -51.96 -80.00 L -86.60 -60.00 L -86.60 -88.00 L -51.96 -108.00 Z" fill="#e6e8ec" stroke="#a3a9b2"/><path vector-effect="non-scaling-stroke" data-face="top" d="M -86.60 -128.00 L -51.96 -108.00 L -86.60 -88.00 L -121.24 -108.00 Z" fill="#fafafb" stroke="#a3a9b2"/></g>
<g data-object="part-1"><path vector-effect="non-scaling-stroke" data-face="left" d="M -69.28 -50.00 L -34.64 -30.00 L -34.64 -58.00 L -69.28 -78.00 Z" fill="#f0f1f4" stroke="#a3a9b2"/><path vector-effect="non-scaling-stroke" data-face="right" d="M 0.00 -50.00 L -34.64 -30.00 L -34.64 -58.00 L 0.00 -78.00 Z" fill="#e6e8ec" stroke="#a3a9b2"/><path vector-effect="non-scaling-stroke" data-face="top" d="M -34.64 -98.00 L 0.00 -78.00 L -34.64 -58.00 L -69.28 -78.00 Z" fill="#fafafb" stroke="#a3a9b2"/></g>
<g data-object="press-rod"><path vector-effect="non-scaling-stroke" data-face="left" d="M -41.57 -120.00 L -34.64 -116.00 L -34.64 -140.00 L -41.57 -144.00 Z" fill="#f0f1f4" stroke="#a3a9b2"/><path vector-effect="non-scaling-stroke" data-face="right" d="M -27.71 -120.00 L -34.64 -116.00 L -34.64 -140.00 L -27.71 -144.00 Z" fill="#e6e8ec" stroke="#a3a9b2"/><path vector-effect="non-scaling-stroke" data-face="top" d="M -34.64 -148.00 L -27.71 -144.00 L -34.64 -140.00 L -41.57 -144.00 Z" fill="#fafafb" stroke="#a3a9b2"/></g>
<g data-object="press-head"><path vector-effect="non-scaling-stroke" data-face="left" d="M -60.62 -104.00 L -34.64 -89.00 L -34.64 -115.00 L -60.62 -130.00 Z" fill="#f0f1f4" stroke="#a3a9b2"/><path vector-effect="non-scaling-stroke" data-face="right" d="M -8.66 -104.00 L -34.64 -89.00 L -34.64 -115.00 L -8.66 -130.00 Z" fill="#e6e8ec" stroke="#a3a9b2"/><path vector-effect="non-scaling-stroke" data-face="top" d="M -34.64 -145.00 L -8.66 -130.00 L -34.64 -115.00 L -60.62 -130.00 Z" fill="#fafafb" stroke="#a3a9b2"/></g>
<g data-object="press-body"><path vector-effect="non-scaling-stroke" data-face="left" d="M -51.96 -130.00 L -34.64 -120.00 L -34.64 -144.00 L -51.96 -154.00 Z" fill="#f0f1f4" stroke="#a3a9b2"/><path vector-effect="non-scaling-stroke" data-face="right" d="M -17.32 -130.00 L -34.64 -120.00 L -34.64 -144.00 L -17.32 -154.00 Z" fill="#e6e8ec" stroke="#a3a9b2"/><path vector-effect="non-scaling-stroke" data-face="top" d="M -34.64 -164.00 L -17.32 -154.00 L -34.64 -144.00 L -51.96 -154.00 Z" fill="#fafafb" stroke="#a3a9b2"/></g>
<g data-object="press-arm"><path vector-effect="non-scaling-stroke" data-face="left" d="M -51.96 -154.00 L -34.64 -144.00 L -34.64 -160.00 L -51.96 -170.00 Z" fill="#f0f1f4" stroke="#a3a9b2"/><path vector-effect="non-scaling-stroke" data-face="right" d="M 51.96 -194.00 L -34.64 -144.00 L -34.64 -160.00 L 51.96 -210.00 Z" fill="#e6e8ec" stroke="#a3a9b2"/><path vector-effect="non-scaling-stroke" data-face="top" d="M 34.64 -220.00 L 51.96 -210.00 L -34.64 -160.00 L -51.96 -170.00 Z" fill="#fafafb" stroke="#a3a9b2"/></g>
<g data-object="part-2"><path vector-effect="non-scaling-stroke" data-face="left" d="M -17.32 -20.00 L 17.32 -0.00 L 17.32 -28.00 L -17.32 -48.00 Z" fill="#f0f1f4" stroke="#a3a9b2"/><path vector-effect="non-scaling-stroke" data-face="right" d="M 51.96 -20.00 L 17.32 -0.00 L 17.32 -28.00 L 51.96 -48.00 Z" fill="#e6e8ec" stroke="#a3a9b2"/><path vector-effect="non-scaling-stroke" data-face="top" d="M 17.32 -68.00 L 51.96 -48.00 L 17.32 -28.00 L -17.32 -48.00 Z" fill="#fafafb" stroke="#a3a9b2"/></g>
<g data-object="part-3"><path vector-effect="non-scaling-stroke" data-face="left" d="M 34.64 10.00 L 69.28 30.00 L 69.28 2.00 L 34.64 -18.00 Z" fill="#f0f1f4" stroke="#a3a9b2"/><path vector-effect="non-scaling-stroke" data-face="right" d="M 103.92 10.00 L 69.28 30.00 L 69.28 2.00 L 103.92 -18.00 Z" fill="#e6e8ec" stroke="#a3a9b2"/><path vector-effect="non-scaling-stroke" data-face="top" d="M 69.28 -38.00 L 103.92 -18.00 L 69.28 2.00 L 34.64 -18.00 Z" fill="#fafafb" stroke="#a3a9b2"/></g>
</g></svg>