<svg xmlns="http://www.w3.org/2000/svg" width="600" height="600" viewBox="0 0 600 600"><title>Резервируемая инфраструктура</title><g data-iso stroke-width="0.85" stroke-linejoin="round" transform="translate(300 300) scale(1.0468) translate(0.00 77.50)">
<path vector-effect="non-scaling-stroke" data-hit d="M -164.54 -166.00 L -51.96 -231.00 L 164.54 -106.00 L 164.54 -98.00 L 155.88 16.00 L 51.96 76.00 L -69.28 6.00 L -155.88 -44.00 L -164.54 -158.00 Z" fill="none" stroke="none"/>
<g data-object="server-0-0"><path vector-effect="non-scaling-stroke" data-face="left" d="M -155.88 -44.00 L -69.28 6.00 L -69.28 -22.00 L -155.88 -72.00 Z" fill="#fafafb" stroke="#a3a9b2"/><path vector-effect="non-scaling-stroke" data-face="right" d="M 34.64 -54.00 L -69.28 6.00 L -69.28 -22.00 L 34.64 -82.00 Z" fill="#fafafb" stroke="#a3a9b2"/><path vector-effect="non-scaling-stroke" data-face="top" d="M -51.96 -132.00 L 34.64 -82.00 L -69.28 -22.00 L -155.88 -72.00 Z" fill="#fafafb" stroke="#a3a9b2"/><path vector-effect="non-scaling-stroke" data-edge="outline" d="M -155.88 -72.00 L -51.96 -132.00 L 34.64 -82.00 L 34.64 -54.00 L -69.28 6.00 L -155.88 -44.00 Z" fill="none" stroke="#a3a9b2"/></g>
<g data-object="server-0-1"><path vector-effect="non-scaling-stroke" data-face="left" d="M -155.88 -82.00 L -69.28 -32.00 L -69.28 -60.00 L -155.88 -110.00 Z" fill="#fafafb" stroke="#a3a9b2"/><path vector-effect="non-scaling-stroke" data-face="right" d="M 34.64 -92.00 L -69.28 -32.00 L -69.28 -60.00 L 34.64 -120.00 Z" fill="#fafafb" stroke="#a3a9b2"/><path vector-effect="non-scaling-stroke" data-face="top" d="M -51.96 -170.00 L 34.64 -120.00 L -69.28 -60.00 L -155.88 -110.00 Z" fill="#fafafb" stroke="#a3a9b2"/><path vector-effect="non-scaling-stroke" data-edge="outline" d="M -155.88 -110.00 L -51.96 -170.00 L 34.64 -120.00 L 34.64 -92.00 L -69.28 -32.00 L -155.88 -82.00 Z" fill="none" stroke="#a3a9b2"/></g>
<g data-object="server-0-2"><path vector-effect="non-scaling-stroke" data-face="left" d="M -155.88 -120.00 L -69.28 -70.00 L -69.28 -98.00 L -155.88 -148.00 Z" fill="#fafafb" stroke="#a3a9b2"/><path vector-effect="non-scaling-stroke" data-face="right" d="M 34.64 -130.00 L -69.28 -70.00 L -69.28 -98.00 L 34.64 -158.00 Z" fill="#fafafb" stroke="#a3a9b2"/><path vector-effect="non-scaling-stroke" data-face="top" d="M -51.96 -208.00 L 34.64 -158.00 L -69.28 -98.00 L -155.88 -148.00 Z" fill="#fafafb" stroke="#a3a9b2"/><path vector-effect="non-scaling-stroke" data-edge="outline" d="M -155.88 -148.00 L -51.96 -208.00 L 34.64 -158.00 L 34.64 -130.00 L -69.28 -70.00 L -155.88 -120.00 Z" fill="none" stroke="#a3a9b2"/></g>
<g data-object="server-cap-0"><path vector-effect="non-scaling-stroke" data-face="left" d="M -164.54 -158.00 L -69.28 -103.00 L -69.28 -111.00 L -164.54 -166.00 Z" fill="#fafafb" stroke="#a3a9b2"/><path vector-effect="non-scaling-stroke" data-face="right" d="M 43.30 -168.00 L -69.28 -103.00 L -69.28 -111.00 L 43.30 -176.00 Z" fill="#fafafb" stroke="#a3a9b2"/><path vector-effect="non-scaling-stroke" data-face="top" d="M -51.96 -231.00 L 43.30 -176.00 L -69.28 -111.00 L -164.54 -166.00 Z" fill="#fafafb" stroke="#a3a9b2"/><path vector-effect="non-scaling-stroke" data-edge="outline" d="M -164.54 -166.00 L -51.96 -231.00 L 43.30 -176.00 L 43.30 -168.00 L -69.28 -103.00 L -164.54 -158.00 Z" fill="none" stroke="#a3a9b2"/></g>
<g data-object="server-1-0"><path vector-effect="non-scaling-stroke" data-face="left" d="M -34.64 26.00 L 51.96 76.00 L 51.96 48.00 L -34.64 -2.00 Z" fill="#fafafb" stroke="#a3a9b2"/><path vector-effect="non-scaling-stroke" data-face="right" d="M 155.88 16.00 L 51.96 76.00 L 51.96 48.00 L 155.88 -12.00 Z" fill="#fafafb" stroke="#a3a9b2"/><path vector-effect="non-scaling-stroke" data-face="top" d="M 69.28 -62.00 L 155.88 -12.00 L 51.96 48.00 L -34.64 -2.00 Z" fill="#fafafb" stroke="#a3a9b2"/><path vector-effect="non-scaling-stroke" data-edge="outline" d="M -34.64 -2.00 L 69.28 -62.00 L 155.88 -12.00 L 155.88 16.00 L 51.96 76.00 L -34.64 26.00 Z" fill="none" stroke="#a3a9b2"/></g>
<g data-object="server-1-1"><path vector-effect="non-scaling-stroke" data-face="left" d="M -34.64 -12.00 L 51.96 38.00 L 51.96 10.00 L -34.64 -40.00 Z" fill="#fafafb" stroke="#a3a9b2"/><path vector-effect="non-scaling-stroke" data-face="right" d="M 155.88 -22.00 L 51.96 38.00 L 51.96 10.00 L 155.88 -50.00 Z" fill="#fafafb" stroke="#a3a9b2"/><path vector-effect="non-scaling-stroke" data-face="top" d="M 69.28 -100.00 L 155.88 -50.00 L 51.96 10.00 L -34.64 -40.00 Z" fill="#fafafb" stroke="#a3a9b2"/><path vector-effect="non-scaling-stroke" data-edge="outline" d="M -34.64 -40.00 L 69.28 -100.00 L 155.88 -50.00 L 155.88 -22.00 L 51.96 38.00 L -34.64 -12.00 Z" fill="none" stroke="#a3a9b2"/></g>
<g data-object="server-1-2"><path vector-effect="non-scaling-stroke" data-face="left" d="M -34.64 -50.00 L 51.96 -0.00 L 51.96 -28.00 L -34.64 -78.00 Z" fill="#fafafb" stroke="#a3a9b2"/><path vector-effect="non-scaling-stroke" data-face="right" d="M 155.88 -60.00 L 51.96 -0.00 L 51.96 -28.00 L 155.88 -88.00 Z" fill="#fafafb" stroke="#a3a9b2"/><path vector-effect="non-scaling-stroke" data-face="top" d="M 69.28 -138.00 L 155.88 -88.00 L 51.96 -28.00 L -34.64 -78.00 Z" fill="#fafafb" stroke="#a3a9b2"/><path vector-effect="non-scaling-stroke" data-edge="outline" d="M -34.64 -78.00 L 69.28 -138.00 L 155.88 -88.00 L 155.88 -60.00 L 51.96 -0.00 L -34.64 -50.00 Z" fill="none" stroke="#a3a9b2"/></g>
<g data-object="server-cap-1"><path vector-effect="non-scaling-stroke" data-face="left" d="M -43.30 -88.00 L 51.96 -33.00 L 51.96 -41.00 L -43.30 -96.00 Z" fill="#fafafb" stroke="#a3a9b2"/><path vector-effect="non-scaling-stroke" data-face="right" d="M 164.54 -98.00 L 51.96 -33.00 L 51.96 -41.00 L 164.54 -106.00 Z" fill="#fafafb" stroke="#a3a9b2"/><path vector-effect="non-scaling-stroke" data-face="top" d="M 69.28 -161.00 L 164.54 -106.00 L 51.96 -41.00 L -43.30 -96.00 Z" fill="#fafafb" stroke="#a3a9b2"/><path vector-effect="non-scaling-stroke" data-edge="outline" d="M -43.30 -96.00 L 69.28 -161.00 L 164.54 -106.00 L 164.54 -98.00 L 51.96 -33.00 L -43.30 -88.00 Z" fill="none" stroke="#a3a9b2"/></g>
</g></svg>