<svg preserveAspectRatio="none" overflow="visible" style="display: block;" width="202.865" height="224.524" viewBox="0 0 202.865 224.524" fill="none" xmlns="http://www.w3.org/2000/svg">
<g id="Group">
<path id="Vector" d="M0.416513 140.571L38.8985 162.848V45.8977L0.416513 23.6215V140.571Z" fill="#F7F7F8" stroke="#ADB1B7" stroke-width="0.832887" stroke-linecap="round" stroke-linejoin="round"/>
<path id="Vector_2" d="M78.9843 139.642L38.8981 162.846V45.8963L78.9843 22.6919V139.642Z" fill="#F7F7F8" stroke="#ADB1B7" stroke-width="0.832887" stroke-linecap="round" stroke-linejoin="round"/>
<path id="Vector_3" d="M40.5019 0.416443L78.9848 22.6926L38.8985 45.8969L0.416513 23.6208L40.5019 0.416443Z" fill="#F7F7F8" stroke="#ADB1B7" stroke-width="0.832887" stroke-linecap="round" stroke-linejoin="round"/>
<path id="Vector_4" d="M38.8981 162.847V45.897" stroke="#ADB1B7" stroke-width="0.832887" stroke-linecap="round" stroke-linejoin="round"/>
<path id="Vector_5" d="M0.416513 129.433L38.8985 151.709L78.9848 128.504" stroke="#ADB1B7" stroke-width="0.832887" stroke-linecap="round" stroke-linejoin="round"/>
<path id="Vector_6" d="M38.8983 162.847L96.6217 196.261V173.985L38.8983 140.571V162.847Z" fill="#F7F7F8" stroke="#ADB1B7" stroke-width="0.832887" stroke-linecap="round" stroke-linejoin="round"/>
<path id="Vector_7" d="M136.707 173.056L96.6213 196.26V173.984L136.707 150.78V173.056Z" fill="#F7F7F8" stroke="#ADB1B7" stroke-width="0.832887" stroke-linecap="round" stroke-linejoin="round"/>
<path id="Vector_8" d="M78.9845 117.366L136.707 150.78L96.6217 173.984L38.8983 140.57L78.9845 117.366Z" fill="#F7F7F8" stroke="#ADB1B7" stroke-width="0.832887" stroke-linecap="round" stroke-linejoin="round"/>
<path id="Vector_9" d="M96.6213 196.261V173.985" stroke="#ADB1B7" stroke-width="0.832887" stroke-linecap="round" stroke-linejoin="round"/>
<path id="Vector_10" d="M38.8981 151.709L96.6215 185.124L136.707 161.919" stroke="#ADB1B7" stroke-width="0.832887" stroke-linecap="round" stroke-linejoin="round"/>
<path id="Vector_11" d="M96.6213 196.262L144.724 224.107V167.488L96.6213 139.643V196.262Z" fill="#F7F7F8" stroke="#ADB1B7" stroke-width="0.832887" stroke-linecap="round" stroke-linejoin="round"/>
<path id="Vector_12" d="M202.449 190.693L144.725 224.107V167.489L202.449 134.075V190.693Z" fill="#F7F7F8" stroke="#ADB1B7" stroke-width="0.832887" stroke-linecap="round" stroke-linejoin="round"/>
<path id="Vector_13" d="M154.345 106.229L202.448 134.074L144.724 167.488L96.6213 139.643L154.345 106.229Z" fill="#F7F7F8" stroke="#ADB1B7" stroke-width="0.832887" stroke-linecap="round" stroke-linejoin="round"/>
<path id="Vector_14" d="M144.725 224.105V167.487" stroke="#ADB1B7" stroke-width="0.832887" stroke-linecap="round" stroke-linejoin="round"/>
<path id="Vector_15" d="M96.6213 185.124L144.724 212.969L202.448 179.555" stroke="#ADB1B7" stroke-width="0.832887" stroke-linecap="round" stroke-linejoin="round"/>
</g>
</svg>
