<svg preserveAspectRatio="none" overflow="visible" style="display: block;" width="34.22" height="34.22" viewBox="0 0 34.22 34.22" fill="none" xmlns="http://www.w3.org/2000/svg">
<g id="Head_Hunter_logo 1" clip-path="url(#clip0_0_324)">
<path id="hh &#226;&#128;&#148; monochrome" d="M17.1104 0C26.5603 0.000183472 34.2197 7.66039 34.2197 17.1104C34.2195 26.5602 26.5602 34.2195 17.1104 34.2197C7.66039 34.2197 0.000183461 26.5603 0 17.1104C0 7.66028 7.66028 0 17.1104 0ZM8.80176 22.4004H11.3906V18.3389C11.3907 17.3927 11.5846 16.7857 11.876 16.4297C12.1587 16.0739 12.5557 15.9376 12.9834 15.9375C13.3635 15.9375 13.6639 16.058 13.874 16.2764C14.085 16.5028 14.2061 16.8512 14.2061 17.3369V22.3936H16.7949V16.8271C16.7949 15.8808 16.5201 15.1118 16.002 14.5771C15.4925 14.0437 14.7564 13.7608 13.8584 13.7607C12.7422 13.7607 11.8844 14.214 11.3906 15.0625V10.8486H8.80176V22.4004ZM18.2266 22.4004H20.8154V18.3389C20.8155 17.3927 21.0094 16.7857 21.3008 16.4297C21.5836 16.0738 21.9802 15.9375 22.4092 15.9375C22.7891 15.9376 23.089 16.058 23.2988 16.2764C23.51 16.5028 23.6309 16.8512 23.6309 17.3369V22.3936H26.2197V16.8271C26.2197 15.8808 25.9441 15.1121 25.4346 14.5859C24.9165 14.0524 24.1811 13.7608 23.2832 13.7607C22.1669 13.7607 21.3082 14.2139 20.8154 15.0625V10.8486H18.2266V22.4004Z" fill="#6F7988"/>
</g>
<defs>
<clipPath id="clip0_0_324">
<rect width="34.22" height="34.22" fill="white"/>
</clipPath>
</defs>
</svg>
